<svg width="20" height="20" viewBox="0 0 20 20" fill="none" xmlns="http://www.w3.org/2000/svg">
<path fill-rule="evenodd" clip-rule="evenodd" d="M9.95868 0C10.0826 0 10.3182 0.022155 10.4752 0.0553876C10.6364 0.0849276 10.876 0.16247 11.0124 0.228935C11.1488 0.291708 11.3926 0.461563 11.5537 0.605571C11.7521 0.782811 11.8843 0.937897 11.9711 1.10406C12.0372 1.23699 12.1198 1.41792 12.1488 1.51024C12.1777 1.61363 12.1942 1.83148 12.1694 2.50352L13.0537 2.9577C13.5372 3.20879 14.0124 3.45249 14.1074 3.5005C14.1983 3.5485 14.5207 3.71097 14.814 3.86236C15.1074 4.01745 15.4091 4.16884 15.4752 4.20576C15.5413 4.24269 15.7355 4.33869 15.9008 4.42362C16.1859 4.56763 16.2025 4.57132 16.2686 4.50855C16.3099 4.47163 16.4008 4.40885 16.4669 4.36454C16.5331 4.32392 16.6612 4.25377 16.7479 4.20946C16.8306 4.16884 17.0372 4.09868 17.1983 4.05806C17.3636 4.01745 17.6198 3.98421 17.7686 3.98421C17.9174 3.98791 18.1405 4.01006 18.2645 4.03591C18.3884 4.06176 18.5744 4.11714 18.6777 4.16145C18.781 4.20207 18.9793 4.31285 19.124 4.40516C19.2727 4.50486 19.4545 4.67102 19.5579 4.80395C19.657 4.93319 19.7686 5.09566 19.8058 5.16582C19.843 5.23597 19.9008 5.40214 19.9339 5.53507C19.9711 5.668 20 5.86739 19.9959 5.97817C19.9959 6.08894 19.9711 6.27357 19.9421 6.38434C19.9132 6.49512 19.8388 6.68713 19.7769 6.80898C19.7149 6.93083 19.6033 7.097 19.5331 7.17823C19.4587 7.25947 19.3388 7.37393 19.2603 7.43671C19.186 7.49579 19.0289 7.60287 18.9091 7.66564C18.7934 7.73211 18.6198 7.80965 18.3471 7.87981V12.0708L18.4587 12.1114C18.5248 12.1336 18.6777 12.1963 18.8017 12.248C18.9298 12.3034 19.157 12.4585 19.3223 12.6062C19.5455 12.8019 19.6529 12.9312 19.7645 13.1416C19.843 13.293 19.9298 13.5072 19.9545 13.6106C19.9793 13.7177 20 13.9023 20 14.0168C20 14.1349 19.9587 14.3638 19.9091 14.5263C19.8554 14.7036 19.7521 14.9103 19.6529 15.0433C19.5661 15.1651 19.3884 15.3534 19.2603 15.4605C19.1322 15.5676 18.9174 15.7042 18.781 15.7633C18.6446 15.8224 18.4587 15.8925 18.3678 15.9184C18.2769 15.9442 18.0124 15.9664 17.7686 15.9664C17.5124 15.9664 17.2645 15.9442 17.1694 15.9147C17.0785 15.8889 16.8926 15.815 16.7562 15.7559C16.6198 15.6932 16.5 15.6341 16.4876 15.6193C16.4752 15.6045 16.4008 15.5491 16.1777 15.4014L15.6818 15.6599C15.4091 15.8002 15.1116 15.9553 15.0207 16.0033C14.9298 16.0476 14.5496 16.2433 14.1736 16.4353C13.7975 16.6274 13.1901 16.9412 12.157 17.4803L12.1777 17.868C12.1942 18.1228 12.1818 18.3259 12.1488 18.4588C12.1198 18.5696 12.0372 18.769 11.9669 18.8982C11.8967 19.0275 11.7438 19.2269 11.6281 19.3413C11.5124 19.4558 11.3264 19.5998 11.2149 19.6663C11.1033 19.7328 10.8926 19.8251 10.7438 19.8768C10.595 19.9248 10.3347 19.9765 10.1653 19.9912C9.95455 20.0097 9.76446 19.9986 9.56612 19.9617C9.40909 19.9321 9.15289 19.8583 8.99587 19.7918C8.80578 19.7143 8.63223 19.5998 8.43802 19.4263C8.23967 19.2527 8.1157 19.0976 8.00826 18.9019C7.92562 18.7505 7.83471 18.5327 7.80992 18.4219C7.78099 18.3074 7.76859 18.0859 7.77686 17.905C7.78926 17.7314 7.80579 17.5689 7.81405 17.5431C7.82231 17.5136 7.67769 17.4139 7.43802 17.2883C7.22314 17.1738 6.99174 17.0557 6.92149 17.0188C6.85124 16.9818 6.2562 16.6754 5.59917 16.3356C4.93802 15.9959 4.31818 15.6747 4.21488 15.6267C4.11157 15.575 3.97521 15.5011 3.90496 15.4642C3.78099 15.3978 3.78099 15.3978 3.65702 15.4974C3.58678 15.5528 3.42975 15.6525 3.30579 15.719C3.18182 15.7855 2.97521 15.8667 2.85124 15.8999C2.69835 15.9442 2.47934 15.9627 2.19008 15.9627C1.93802 15.9627 1.68595 15.9442 1.59091 15.9147C1.5 15.8852 1.31405 15.8187 1.17769 15.7596C1.02479 15.6968 0.826446 15.5639 0.661157 15.4199C0.479339 15.2574 0.342975 15.095 0.239669 14.9103C0.157025 14.7589 0.0661157 14.578 0.0413223 14.5079C0.0206612 14.4377 0 14.2125 0 14.0094C0 13.7435 0.0206612 13.5773 0.0785124 13.4186C0.123967 13.2967 0.206612 13.1232 0.264463 13.0309C0.318182 12.9385 0.446281 12.7798 0.545455 12.6801C0.64876 12.5767 0.830579 12.4364 0.954545 12.3625C1.07851 12.2887 1.27686 12.1963 1.61157 12.0893V9.97346C1.61157 8.11982 1.60331 7.86135 1.54959 7.86135C1.51653 7.86135 1.36364 7.80596 1.21074 7.73949C1.05785 7.67672 0.830579 7.53641 0.706612 7.43302C0.578512 7.32963 0.413223 7.16346 0.342975 7.06376C0.268595 6.96407 0.161157 6.76098 0.103306 6.61328C0.0206612 6.39911 0 6.27726 0 5.96709C0 5.76031 0.0206612 5.53137 0.0454545 5.46122C0.0702479 5.39106 0.136364 5.23967 0.194215 5.12889C0.252066 5.01812 0.376033 4.83718 0.471074 4.73379C0.561983 4.62671 0.72314 4.4827 0.826446 4.41254C0.929752 4.34239 1.08264 4.25377 1.16529 4.20946C1.25207 4.16515 1.45868 4.09868 1.61983 4.05806C1.78512 4.01745 2.04132 3.98421 2.19008 3.98421C2.33884 3.98791 2.57025 4.01006 2.70661 4.0396C2.84298 4.06914 3.04545 4.13561 3.16116 4.1873C3.27273 4.2353 3.46694 4.34608 3.58264 4.42732C3.7314 4.52701 3.81818 4.56394 3.85124 4.54178C3.88017 4.52332 4.13636 4.3867 4.42149 4.24269C4.70661 4.09499 5.2438 3.81805 5.61983 3.62604C5.99587 3.43034 6.36777 3.23833 6.45041 3.19402C6.53306 3.1534 6.8719 2.97616 7.80578 2.48875L7.78099 2.1195C7.76446 1.83887 7.77686 1.69486 7.83058 1.51024C7.86777 1.3773 7.95455 1.17422 8.02066 1.05606C8.08678 0.941589 8.23967 0.749579 8.36364 0.631419C8.4876 0.516951 8.68595 0.365558 8.80992 0.299093C8.92975 0.23632 9.11157 0.155085 9.21488 0.121853C9.31818 0.0886201 9.47521 0.0516951 9.56612 0.0332326C9.65702 0.0184625 9.83471 0.00369251 9.95868 0V0ZM9.46281 1.12991C9.3843 1.17422 9.28099 1.24068 9.2314 1.27761C9.18595 1.31453 9.11157 1.39207 9.06612 1.45485C9.02479 1.51393 8.96281 1.62101 8.93802 1.69486C8.90909 1.76502 8.8843 1.89426 8.8843 1.97918C8.8843 2.0678 8.92149 2.22658 8.96281 2.32997C9.0124 2.45182 9.10744 2.57737 9.21074 2.6623C9.30578 2.73984 9.44215 2.83215 9.5124 2.86538C9.61157 2.91339 9.7438 2.93185 9.97934 2.93185C10.2397 2.93185 10.3471 2.91339 10.4752 2.85061C10.5661 2.8063 10.6983 2.71768 10.7727 2.64753C10.843 2.58106 10.9421 2.44075 10.9917 2.34105C11.062 2.20073 11.0785 2.10473 11.0661 1.93487C11.0579 1.81302 11.0124 1.64686 10.9711 1.56562C10.9256 1.48439 10.8182 1.35515 10.7355 1.27761C10.6488 1.20376 10.5165 1.11883 10.4421 1.08929C10.3719 1.06344 10.2149 1.03021 10.1033 1.01913C9.9876 1.00805 9.83058 1.01175 9.75207 1.02652C9.67355 1.04129 9.54132 1.0856 9.46281 1.12991ZM8.04545 3.53742C7.96281 3.57804 7.83058 3.6445 7.7562 3.68512C7.68595 3.72205 7.31818 3.91036 6.94215 4.10237C6.56612 4.29438 6.16116 4.50486 6.04132 4.57132C5.92562 4.6341 5.81818 4.68579 5.80579 4.68579C5.79339 4.68579 5.71488 4.72641 5.6281 4.77441C5.54545 4.82241 5.26859 4.96642 5.02066 5.09566C4.76859 5.2249 4.51653 5.35783 4.45455 5.38737C4.35537 5.43537 4.34711 5.45752 4.3719 5.55353C4.3843 5.61261 4.40083 5.79723 4.40083 5.9597C4.40083 6.12218 4.38843 6.31049 4.36777 6.37327C4.33884 6.49512 4.33884 6.49512 4.71901 6.69451C4.92975 6.8016 5.54959 7.11915 6.09504 7.39978C6.6405 7.68041 7.21488 7.97581 7.37603 8.06074C7.53306 8.14567 7.71488 8.23798 7.77686 8.26752C7.87603 8.31922 7.89256 8.31552 7.98347 8.2306C8.03719 8.1789 8.16529 8.0792 8.26446 8.00535C8.36777 7.9352 8.51653 7.84288 8.59504 7.80227C8.67355 7.76165 8.84298 7.69149 8.96694 7.65087C9.09091 7.60656 9.2438 7.56225 9.30578 7.55118L9.42149 7.52902V3.91036C9.2438 3.85128 9.11983 3.80697 9.02893 3.77005C8.93802 3.73682 8.74793 3.62973 8.60744 3.53373C8.3843 3.38234 8.34298 3.36757 8.27686 3.40818C8.23554 3.43772 8.13223 3.49311 8.04545 3.53742V3.53742ZM11.314 3.55588C11.1612 3.65927 10.9256 3.78113 10.7893 3.82544L10.5372 3.91036V7.52902C10.7149 7.55856 10.8678 7.60287 10.9917 7.64718C11.1157 7.69149 11.3223 7.78011 11.4463 7.84658C11.5702 7.91304 11.7603 8.04228 11.8678 8.13459C11.9793 8.2269 12.0785 8.30445 12.095 8.30445C12.1157 8.30445 12.2562 8.23429 12.4174 8.14936C12.5785 8.06813 12.7686 7.96843 12.8388 7.9315C12.9132 7.89089 13.0372 7.83181 13.1074 7.79119C13.1818 7.75426 13.4959 7.59549 13.8017 7.43671C14.1074 7.27793 14.5289 7.06376 14.7314 6.95668C14.9339 6.8496 15.2149 6.70559 15.3512 6.63543L15.5992 6.50989C15.5702 6.22557 15.5579 6.07048 15.5579 5.97817C15.5579 5.88585 15.5702 5.72708 15.5868 5.62738L15.6157 5.44275C15.0661 5.15474 14.8595 5.04766 14.7975 5.01812C14.7397 4.98858 14.5785 4.90365 14.4421 4.83349C14.3058 4.76333 14.157 4.68948 14.1116 4.66364C14.0661 4.64148 13.7769 4.49378 13.4711 4.335C13.1653 4.17622 12.8554 4.02114 12.7893 3.98421C12.7231 3.94729 12.4793 3.82544 12.2521 3.70728C12.0248 3.58912 11.781 3.46726 11.7149 3.43034L11.5868 3.36387L11.314 3.55588ZM1.53719 5.20643C1.42149 5.28398 1.30579 5.40952 1.2314 5.53876C1.1405 5.69754 1.1157 5.78985 1.1157 5.97078C1.1157 6.13325 1.14463 6.25511 1.21074 6.37696C1.26033 6.47296 1.3595 6.6022 1.42562 6.66497C1.49587 6.72405 1.6405 6.81267 1.74793 6.85698C1.88843 6.91606 2.01653 6.94191 2.20248 6.93822C2.40496 6.93822 2.5124 6.91606 2.68595 6.83483C2.82645 6.77206 2.96694 6.66867 3.05372 6.56897C3.1281 6.47666 3.21901 6.31419 3.25207 6.20341C3.29339 6.07048 3.30579 5.94494 3.28512 5.85262C3.26859 5.77139 3.22314 5.63846 3.18182 5.55722C3.1405 5.47599 3.03719 5.35044 2.95041 5.27659C2.86364 5.20643 2.7438 5.12889 2.68595 5.10304C2.63223 5.08089 2.52066 5.04396 2.43802 5.02181C2.3595 4.99965 2.23967 4.98488 2.16942 4.98858C2.10331 4.99227 1.97521 5.01073 1.88843 5.03289C1.80165 5.05873 1.64463 5.13258 1.53719 5.20643V5.20643ZM17.1157 5.20643C17.0083 5.27659 16.8719 5.4206 16.8099 5.5203C16.719 5.668 16.6983 5.75292 16.6983 5.95232C16.6942 6.13695 16.719 6.24772 16.7893 6.37696C16.8388 6.46927 16.938 6.59851 17.0083 6.66128C17.0785 6.72405 17.2231 6.81267 17.3264 6.85698C17.4628 6.91606 17.5992 6.94191 17.7686 6.94191C17.905 6.94191 18.0702 6.91976 18.1322 6.8976C18.1942 6.87175 18.3223 6.80529 18.4215 6.7499C18.5165 6.69082 18.6405 6.57635 18.6983 6.48773C18.7521 6.40281 18.8182 6.25511 18.8471 6.16649C18.8843 6.03725 18.8843 5.95601 18.843 5.79723C18.814 5.68277 18.7479 5.53507 18.6983 5.46491C18.6488 5.39106 18.562 5.29875 18.5083 5.25813C18.4545 5.21382 18.3554 5.15105 18.2851 5.12151C18.219 5.08827 18.0992 5.04396 18.0165 5.02181C17.938 4.99965 17.8182 4.98488 17.7479 4.98858C17.6818 4.99227 17.5537 5.01073 17.4669 5.03289C17.3802 5.05873 17.219 5.13628 17.1157 5.20643V5.20643ZM3.16116 7.75057C3.02479 7.80596 2.88017 7.86504 2.84298 7.87612C2.77273 7.89827 2.76859 8.03489 2.76859 9.98823V12.0745C2.94628 12.1336 3.10331 12.2 3.23554 12.2591C3.36364 12.3182 3.53306 12.4179 3.60744 12.4807C3.68182 12.5398 3.7562 12.5914 3.77273 12.5914C3.78926 12.5914 3.8719 12.5545 3.95868 12.5139C4.04132 12.4696 4.13223 12.4216 4.15289 12.4068C4.17769 12.3921 4.29752 12.3293 4.42149 12.2665C4.54959 12.2074 4.78926 12.0856 4.95868 12.0006C5.13223 11.9157 5.35537 11.7976 5.45455 11.7422C5.55785 11.6831 5.72727 11.5982 5.82645 11.5465C5.92975 11.4948 6.30165 11.3065 6.65289 11.1218C7.15702 10.8634 7.29339 10.7747 7.28512 10.723C7.27686 10.6824 7.2438 10.5015 7.21074 10.3206C7.15289 10.0178 7.15289 9.955 7.21074 9.6559C7.24793 9.47128 7.28099 9.29035 7.28512 9.25342C7.29339 9.20542 7.19008 9.13157 6.90083 8.98018C6.68595 8.8694 6.42562 8.73647 6.32231 8.68477C6.22314 8.63677 6.05372 8.54815 5.95041 8.49276C5.85124 8.43368 5.50413 8.25644 5.18595 8.09397C4.86777 7.9315 4.42562 7.70626 4.20661 7.59179C3.98347 7.47733 3.78926 7.38501 3.77273 7.38501C3.7562 7.38501 3.66529 7.44409 3.57438 7.51794C3.48347 7.5881 3.29752 7.69518 3.16116 7.75057V7.75057ZM15.2479 7.85765C14.876 8.04966 14.5124 8.23429 14.4421 8.27121C14.376 8.30445 13.9587 8.5223 13.5124 8.74755C13.0702 8.97648 12.6942 9.17219 12.6777 9.17957C12.6612 9.18696 12.6777 9.27927 12.7149 9.38635C12.7603 9.51928 12.781 9.71129 12.781 9.98823C12.781 10.2615 12.7603 10.4572 12.7149 10.5864L12.6446 10.7821C13.3017 11.1181 13.5579 11.2511 13.6364 11.288C13.719 11.3286 13.9504 11.4505 14.1529 11.5575C14.3595 11.6646 14.6653 11.8234 14.8347 11.9083C15.0083 11.9933 15.314 12.152 15.5165 12.2591C15.7231 12.3662 15.9545 12.4844 16.0331 12.525L16.1777 12.5988C16.5331 12.3625 16.6901 12.2702 16.7562 12.2444C16.8264 12.2148 16.9504 12.1631 17.0372 12.1336L17.1901 12.0745C17.1901 7.99058 17.1859 7.86504 17.1198 7.86135C17.0785 7.86135 16.9339 7.81334 16.7975 7.75426C16.6612 7.69518 16.4752 7.5881 16.3843 7.51425C16.2934 7.44409 16.2025 7.38501 16.1777 7.38501C16.157 7.38501 16.0909 7.41086 16.0331 7.44779C15.9793 7.48102 15.624 7.66934 15.2479 7.85765V7.85765ZM9.18595 8.67C9.08678 8.71431 8.94215 8.80293 8.8595 8.8694C8.77273 8.93587 8.64463 9.07618 8.57025 9.18326C8.49174 9.29035 8.40083 9.48236 8.36364 9.6079C8.31818 9.77037 8.30578 9.91807 8.32231 10.1175C8.33884 10.3279 8.37603 10.4535 8.4876 10.6529C8.56612 10.7932 8.71074 10.9778 8.80992 11.0627C8.90909 11.144 9.11157 11.2695 9.2562 11.3397C9.51653 11.4578 9.54545 11.4615 9.97934 11.4615C10.3884 11.4615 10.4587 11.4505 10.6736 11.3618C10.8017 11.3065 10.9876 11.1994 11.0826 11.1218C11.1736 11.048 11.3099 10.9077 11.3802 10.819C11.4463 10.7267 11.5372 10.568 11.5785 10.4683C11.6281 10.3464 11.6529 10.1802 11.6529 9.98823C11.6529 9.79622 11.6281 9.62636 11.5785 9.5082C11.5372 9.40481 11.4504 9.24604 11.3802 9.15742C11.3099 9.0651 11.1777 8.93217 11.0868 8.86202C10.9959 8.78816 10.8388 8.69585 10.7397 8.65154C10.6405 8.60723 10.4959 8.55184 10.4132 8.52969C10.3347 8.50753 10.1322 8.49276 9.95868 8.49276C9.78926 8.49646 9.58678 8.51861 9.50413 8.54446C9.42562 8.57031 9.28099 8.62569 9.18595 8.67ZM7.21074 12.0006C7.14463 12.0339 6.72727 12.2517 6.28099 12.477C5.83884 12.7059 5.40083 12.9312 5.30992 12.9755C5.21901 13.0235 4.97107 13.1527 4.75207 13.2635L4.3595 13.4703C4.39256 13.6881 4.40083 13.8691 4.40083 14.0131C4.40083 14.1534 4.38843 14.3269 4.37603 14.4008L4.34711 14.53C5.12397 14.9288 5.43388 15.0876 5.53719 15.143C5.6405 15.1947 6.26446 15.5159 6.92149 15.8593C7.58264 16.199 8.18182 16.5092 8.2562 16.5461L8.38843 16.6163C8.78926 16.3541 8.96281 16.2544 9.02893 16.2286C9.09917 16.2027 9.21488 16.1584 9.28926 16.1289L9.42562 16.0809V12.4622C9.11983 12.381 8.94628 12.3256 8.84298 12.2813C8.7438 12.2407 8.55785 12.1447 8.42975 12.0708C8.30578 11.9933 8.1281 11.8714 8.03719 11.8013C7.94628 11.7274 7.86364 11.6683 7.85124 11.6683C7.84298 11.6683 7.71901 11.7311 7.58264 11.8013C7.44628 11.8751 7.28099 11.9637 7.21074 12.0006V12.0006ZM11.5289 12.0708C11.405 12.1447 11.2149 12.2444 11.1074 12.2887C11 12.333 10.8264 12.3884 10.7231 12.4142L10.5372 12.4622V16.0993C10.6818 16.1326 10.8182 16.1806 10.9298 16.2323C11.0455 16.2803 11.2355 16.3873 11.3554 16.4686L11.5702 16.6163C12.0372 16.38 12.2273 16.2803 12.2934 16.247C12.3636 16.2101 12.6529 16.0624 12.9339 15.9147C13.219 15.767 13.5248 15.6082 13.6157 15.5639C13.7066 15.5196 14.1446 15.2907 14.5868 15.0617C15.0331 14.8328 15.4463 14.6186 15.5083 14.5891C15.6074 14.5337 15.6157 14.5152 15.5909 14.4008C15.5744 14.3269 15.562 14.1386 15.562 13.9761C15.5661 13.8137 15.5785 13.6327 15.595 13.5773C15.6198 13.4813 15.6033 13.4666 15.281 13.2967C15.0909 13.197 14.8554 13.0752 14.7521 13.0235C14.6529 12.9755 14.3802 12.8352 14.1529 12.7207C13.9256 12.6025 13.6818 12.477 13.6074 12.4401C13.5331 12.3994 13.4132 12.3367 13.3388 12.2997C13.2645 12.2628 12.9587 12.104 12.657 11.949C12.3554 11.7939 12.1033 11.6683 12.0992 11.6683C12.0909 11.6683 12.0124 11.7311 11.9215 11.8013C11.8306 11.8751 11.657 11.9933 11.5289 12.0708V12.0708ZM1.71488 13.1269C1.64876 13.1527 1.53306 13.2229 1.46281 13.2783C1.39256 13.3373 1.28926 13.4592 1.23554 13.5515C1.17355 13.6586 1.13223 13.7989 1.12397 13.9577C1.11157 14.1386 1.1281 14.2383 1.18595 14.3638C1.2314 14.4525 1.32231 14.5854 1.39256 14.6592C1.46281 14.7294 1.60744 14.8254 1.71901 14.8771C1.86777 14.9399 1.99587 14.962 2.19008 14.9657C2.38017 14.9657 2.51653 14.9436 2.64463 14.8882C2.74793 14.8476 2.89669 14.7553 2.97107 14.6888C3.04959 14.6223 3.14463 14.5005 3.18595 14.4192C3.22314 14.338 3.26859 14.2051 3.28512 14.1238C3.30579 14.0278 3.29339 13.9023 3.25207 13.773C3.21488 13.6586 3.13223 13.4998 3.06198 13.4112C2.99174 13.3263 2.84711 13.2118 2.73967 13.1564C2.58678 13.0789 2.47521 13.053 2.25207 13.0456C2.09504 13.0382 1.93802 13.0456 1.90083 13.0567C1.86777 13.0678 1.78512 13.0973 1.71488 13.1269V13.1269ZM17.2934 13.1269C17.2273 13.1527 17.0992 13.2376 17.0124 13.3152C16.9298 13.3927 16.8223 13.5293 16.7769 13.6143C16.7231 13.7214 16.6942 13.8506 16.6942 14.0131C16.6942 14.1866 16.7231 14.3011 16.7893 14.4229C16.8388 14.5189 16.9504 14.6519 17.0372 14.7183C17.1198 14.7885 17.2603 14.8697 17.3471 14.903C17.4339 14.9362 17.6157 14.962 17.7686 14.962C17.9174 14.962 18.1033 14.9362 18.1818 14.9066C18.2645 14.8771 18.3926 14.8033 18.4669 14.7442C18.5455 14.6888 18.6488 14.5817 18.6983 14.5115C18.7479 14.4377 18.814 14.3048 18.843 14.2161C18.8719 14.1165 18.8843 13.9909 18.8678 13.9023C18.8512 13.8211 18.8058 13.6881 18.7645 13.6069C18.7273 13.5257 18.624 13.3964 18.5413 13.3189C18.4587 13.245 18.3306 13.1527 18.2562 13.1195C18.1818 13.0862 17.9959 13.053 17.8306 13.0456C17.6736 13.0382 17.5165 13.0456 17.4793 13.0567C17.4463 13.0678 17.3636 13.0973 17.2934 13.1269V13.1269ZM9.48347 17.1517C9.41736 17.1775 9.29339 17.2662 9.20661 17.3437C9.12397 17.4212 9.01653 17.5616 8.97107 17.6576C8.92149 17.7573 8.8843 17.9123 8.8843 18.0194C8.8843 18.1339 8.92149 18.2742 8.98347 18.3961C9.03719 18.5031 9.13636 18.6398 9.20248 18.7025C9.27273 18.7616 9.41322 18.8502 9.52066 18.8946C9.65702 18.9536 9.78512 18.9795 9.97934 18.9795C10.1281 18.9795 10.3017 18.9573 10.3636 18.9352C10.4256 18.9093 10.5537 18.8429 10.6529 18.7875C10.781 18.7099 10.8636 18.6213 10.9545 18.4515C11.0661 18.2521 11.0785 18.1893 11.0661 17.9825C11.0579 17.8496 11.0207 17.6834 10.9835 17.6133C10.9463 17.5394 10.843 17.4176 10.7562 17.34C10.6694 17.2625 10.5455 17.1775 10.4752 17.1517C10.4091 17.1222 10.2769 17.0815 10.186 17.0594C10.095 17.0409 9.99587 17.0225 9.95868 17.0261C9.92562 17.0261 9.83471 17.0446 9.75207 17.0631C9.67355 17.0815 9.55372 17.1222 9.48347 17.1517V17.1517ZM9.99174 9.34573C10.0868 9.34204 10.2355 9.37158 10.3182 9.40481C10.4008 9.44174 10.5124 9.51928 10.562 9.58205C10.6116 9.64113 10.6777 9.75929 10.7066 9.84053C10.7438 9.955 10.7438 10.0178 10.7025 10.1359C10.6736 10.2172 10.6074 10.3353 10.5537 10.4018C10.5 10.4683 10.3967 10.5495 10.3223 10.579C10.2479 10.6086 10.095 10.6344 9.97934 10.6344C9.83884 10.6307 9.71901 10.6049 9.59917 10.5384C9.4876 10.483 9.39256 10.3944 9.33884 10.3021C9.29339 10.2172 9.2562 10.0805 9.2562 9.98823C9.2562 9.89592 9.29339 9.7556 9.33884 9.67437C9.3843 9.59313 9.47521 9.49343 9.53719 9.45651C9.59917 9.41589 9.68595 9.37897 9.7314 9.36789C9.77686 9.35681 9.89256 9.34573 9.99174 9.34573V9.34573Z" fill="white"/>
</svg>
